<svg xmlns="http://www.w3.org/2000/svg" width="30.697" height="30.694" viewBox="0 0 30.697 30.694">
  <g id="Group_7" data-name="Group 7" transform="translate(0 -0.023)">
    <path id="Path_7" data-name="Path 7" d="M102.912,221.782a.512.512,0,0,0-.512.512v3.07a.512.512,0,0,0,1.023,0v-3.07A.512.512,0,0,0,102.912,221.782Z" transform="translate(-96.261 -208.463)"/>
    <path id="Path_8" data-name="Path 8" d="M6.706.16,1.869,2.1A2.366,2.366,0,0,0,0,4.621V26.114a2.36,2.36,0,0,0,1.856,2.522l4.86,1.944a2.026,2.026,0,0,0,.718.137,1.86,1.86,0,0,0,1.775-2.044V2.063a1.833,1.833,0,0,0-2.5-1.9Zm1.48,28.513c0,.61-.3,1.021-.752,1.021a1.012,1.012,0,0,1-.348-.067L2.225,27.681c-.965-.358-1.2-.666-1.2-1.567V4.621c0-.9.236-1.209,1.214-1.571l4.84-1.936a1.018,1.018,0,0,1,.357-.071c.45,0,.752.41.752,1.02ZM10.68,3.086h7.227a1.537,1.537,0,0,1,1.535,1.535V12.3a.512.512,0,1,0,1.023,0V4.621a2.561,2.561,0,0,0-2.558-2.558H10.68a.512.512,0,0,0,0,1.023Zm9.273,14.837a.511.511,0,0,0-.512.512v7.674a1.537,1.537,0,0,1-1.535,1.535H10.744a.512.512,0,1,0,0,1.023h7.163a2.561,2.561,0,0,0,2.558-2.558V18.435a.512.512,0,0,0-.512-.512Z" transform="translate(0 0)"/>
    <path id="Path_9" data-name="Path 9" d="M207.136,167.471a.511.511,0,0,0-.111-.167l-5.116-5.116a.512.512,0,1,0-.723.723l4.243,4.243H188.246a.512.512,0,1,0,0,1.023h17.183l-4.243,4.243a.512.512,0,1,0,.723.723l5.116-5.116a.513.513,0,0,0,.111-.558Z" transform="translate(-176.478 -152.302)"/>
  </g>
</svg>
