<svg xmlns="http://www.w3.org/2000/svg" width="25.09" height="25.091" viewBox="0 0 25.09 25.091">
  <g id="Group_5" data-name="Group 5" transform="translate(-0.006)">
    <path id="Path_5" data-name="Path 5" d="M24.859,23.726l-6.478-6.375a10.246,10.246,0,0,0,2.739-6.963A10.474,10.474,0,0,0,10.562,0,10.473,10.473,0,0,0,.006,10.389,10.473,10.473,0,0,0,10.562,20.777a10.616,10.616,0,0,0,6.644-2.32l6.5,6.4a.821.821,0,0,0,1.148,0,.791.791,0,0,0,0-1.131Zm-14.3-4.547a8.862,8.862,0,0,1-8.932-8.79A8.862,8.862,0,0,1,10.562,1.6a8.862,8.862,0,0,1,8.932,8.79A8.862,8.862,0,0,1,10.562,19.179Z"/>
  </g>
</svg>
