<svg id="Group_3" data-name="Group 3" xmlns="http://www.w3.org/2000/svg" width="31.139" height="25.3" viewBox="0 0 31.139 25.3">
  <path id="Path_3" data-name="Path 3" d="M31.139,51A13.31,13.31,0,0,1,27.461,52a6.348,6.348,0,0,0,2.808-3.528,12.758,12.758,0,0,1-4.048,1.545,6.383,6.383,0,0,0-11.043,4.365,6.573,6.573,0,0,0,.148,1.456A18.069,18.069,0,0,1,2.168,49.164,6.385,6.385,0,0,0,4.13,57.7a6.3,6.3,0,0,1-2.884-.786v.07A6.413,6.413,0,0,0,6.36,63.252a6.372,6.372,0,0,1-1.674.21,5.644,5.644,0,0,1-1.209-.109A6.445,6.445,0,0,0,9.443,67.8a12.827,12.827,0,0,1-7.915,2.723A11.957,11.957,0,0,1,0,70.436,17.972,17.972,0,0,0,9.793,73.3c11.747,0,18.17-9.731,18.17-18.166,0-.282-.01-.555-.023-.825A12.735,12.735,0,0,0,31.139,51Z" transform="translate(0 -48)"/>
</svg>
